<?xml version="1.0" standalone="no"?>
<!DOCTYPE svg PUBLIC "-//W3C//DTD SVG 20010904//EN"
 "http://www.w3.org/TR/2001/REC-SVG-20010904/DTD/svg10.dtd">
<svg version="1.0" xmlns="http://www.w3.org/2000/svg"
 width="260.000000pt" height="260.000000pt" viewBox="0 0 260.000000 260.000000"
 preserveAspectRatio="xMidYMid meet">
<metadata>
Created by potrace 1.11, written by Peter Selinger 2001-2013
</metadata>
<g transform="translate(0.000000,260.000000) scale(0.100000,-0.100000)"
fill="#000000" stroke="none">
<path d="M713 2289 c-80 -23 -155 -175 -178 -364 -4 -27 -8 -57 -10 -65 -3 -8
-7 -33 -10 -55 -3 -22 -8 -50 -10 -62 -3 -12 -7 -41 -10 -65 -3 -24 -13 -81
-21 -128 -18 -97 -17 -91 -38 -225 -49 -310 -40 -494 34 -695 77 -213 181
-336 353 -420 56 -27 143 -60 192 -74 80 -23 104 -25 220 -22 274 9 518 109
696 286 164 163 232 332 264 655 3 33 8 76 10 95 2 19 7 80 10 135 11 163 13
177 40 330 15 84 19 106 40 245 43 288 -19 406 -190 359 -97 -27 -163 -162
-189 -384 -17 -148 -21 -184 -31 -325 -3 -47 -8 -105 -10 -130 -2 -25 -7 -79
-10 -120 -3 -41 -8 -82 -10 -90 -2 -8 -7 -37 -10 -65 -22 -204 -55 -332 -112
-440 -46 -88 -157 -173 -268 -207 -70 -21 -183 -35 -269 -34 -84 1 -96 4 -161
38 -76 40 -156 102 -191 149 -27 37 -69 169 -85 269 -11 69 -8 271 6 340 2 14
7 45 9 70 4 38 46 311 61 401 3 14 25 104 51 199 25 95 46 187 47 204 0 43
-39 122 -86 167 -41 41 -68 47 -134 28z"/>
<path d="M1310 2042 c-36 -10 -105 -41 -153 -70 -48 -29 -91 -52 -95 -52 -19
-1 -140 -111 -163 -150 -41 -67 -43 -119 -8 -189 43 -86 87 -131 188 -190 l91
-53 -89 -59 c-98 -65 -178 -148 -216 -224 -44 -89 -18 -225 52 -270 74 -49
269 -90 383 -81 194 15 407 91 449 160 50 82 56 200 14 278 -35 66 -135 167
-202 206 -59 34 -62 28 59 110 109 73 219 197 241 272 10 32 9 44 -7 77 -11
21 -32 44 -47 51 -26 13 -31 12 -52 -8 l-23 -21 -7 38 c-13 69 -34 92 -131
140 -110 55 -181 63 -284 35z m177 -201 c44 -20 68 -49 82 -99 14 -46 -19
-102 -106 -180 -119 -107 -108 -105 -200 -42 -131 90 -164 130 -142 173 35 66
212 165 299 166 14 0 44 -8 67 -18z m16 -700 c68 -75 76 -136 25 -174 -18 -14
-43 -30 -55 -36 -29 -15 -127 -25 -238 -26 -134 0 -168 29 -129 110 20 42 123
150 193 203 l54 40 57 -38 c30 -21 73 -57 93 -79z"/>
</g>
</svg>
